<svg id="ezeu7ve5b8cc1" xmlns="http://www.w3.org/2000/svg" xmlns:xlink="http://www.w3.org/1999/xlink" viewBox="0 0 1920 1080" shape-rendering="geometricPrecision" text-rendering="geometricPrecision"><ellipse id="ezeu7ve5b8cc2" rx="874.700000" ry="36.600000" transform="matrix(1 0 0 1 961.50000000000000 743.20000000000005)" opacity="0.1" fill="rgb(42,148,244)" stroke="none" stroke-width="1"/><ellipse id="ezeu7ve5b8cc3" rx="82" ry="6.100000" transform="matrix(1 0 0 1 453.89999999999998 860.79999999999995)" opacity="0.1" fill="rgb(42,148,244)" stroke="none" stroke-width="1"/><path id="ezeu7ve5b8cc4" d="M1655.400000,735.800000L251.600000,735.800000C153.300000,735.800000,73.600000,656.100000,73.600000,557.800000L73.600000,557.800000C73.600000,459.500000,153.300000,379.800000,251.600000,379.800000L1655.400000,379.800000C1753.700000,379.800000,1833.400000,459.500000,1833.400000,557.800000L1833.400000,557.800000C1833.400000,656.100000,1753.700000,735.800000,1655.400000,735.800000Z" fill="rgb(204,233,255)" stroke="none" stroke-width="1"/><path id="ezeu7ve5b8cc5" d="M1651.200000,697.100000L255.800000,697.100000C178.900000,697.100000,116.500000,634.700000,116.500000,557.800000L116.500000,557.800000C116.500000,480.900000,178.900000,418.500000,255.800000,418.500000L1651.300000,418.500000C1728.200000,418.500000,1790.600000,480.900000,1790.600000,557.800000L1790.600000,557.800000C1790.600000,634.700000,1728.200000,697.100000,1651.200000,697.100000Z" opacity="0.15" fill="rgb(14,83,140)" stroke="none" stroke-width="1"/><path id="ezeu7ve5b8cc6" d="M309.381210,697.100000L136.059112,697.100000C125.261584,697.100000,116.500000,634.700000,116.500000,557.800000L116.500000,557.800000C116.500000,480.900000,125.261584,418.500000,136.059112,418.500000L309.395251,418.500000C313.326731,418.500000,316.499997,441.200000,316.499997,469.100000L316.499997,646.400000C316.499997,674.400000,313.312690,697.100000,309.381210,697.100000Z" fill="rgb(255,190,85)" stroke="none" stroke-width="1"/><g id="ezeu7ve5b8cc7" transform="matrix(0.96592582628907 0.25881904510252 -0.25881904510252 0.96592582628907 -878.30741134411005 -386.57209311195345)"><path id="ezeu7ve5b8cc8" d="M1455.400000,580.400000C1455.200000,581,1448.400000,563.400000,1449.300000,557C1450.200000,550.600000,1460.300000,533.600000,1460.300000,533.600000C1460.300000,533.600000,1464.400000,541.800000,1462.500000,549.600000C1460.800000,557.500000,1458.600000,572.900000,1455.400000,580.400000Z" fill="rgb(255,255,255)" stroke="none" stroke-width="1"/><path id="ezeu7ve5b8cc9" d="M1469.200000,608.300000C1469.200000,608.300000,1499.900000,595.200000,1503.700000,590.200000C1507.400000,585.200000,1509.800000,582.900000,1509.800000,582.900000C1509.800000,582.900000,1509.700000,598.900000,1504,602.900000C1498.400000,607,1469.200000,608.300000,1469.200000,608.300000Z" transform="matrix(1 0 0 1 -2.19064229991818 1.95412859704015)" fill="rgb(255,255,255)" stroke="none" stroke-width="1"/><path id="ezeu7ve5b8cc10" d="M1388.100000,634.800000L1384.400000,653.800000L1367.400000,650.300000L1361.600000,673.700000L1365.200000,682.800000L1351.900000,669.900000C1351.900000,669.900000,1356.900000,645.900000,1362.100000,641.500000C1362.100000,641.500000,1373.400000,644.500000,1377.800000,643C1382.300000,641.500000,1392.500000,626.400000,1392.500000,626.400000L1388.100000,634.800000Z" fill="rgb(255,255,255)" stroke="none" stroke-width="1"/><path id="ezeu7ve5b8cc11" d="M1460.300000,574C1460.300000,574,1466.300000,566.900000,1468.700000,554C1471.100000,541.100000,1470.200000,534,1470.200000,534C1470.200000,534,1457.300000,548.300000,1455.800000,558.700000C1454.300000,569.100000,1456.700000,575.800000,1456.700000,575.800000C1456.700000,575.800000,1452.200000,579.600000,1450.400000,586.700000C1448.700000,593.800000,1448.600000,598.100000,1435.500000,604.600000C1422.300000,611.100000,1386.700000,623.400000,1386.700000,623.400000C1386.700000,623.400000,1382.900000,636,1382.400000,641.500000C1381.800000,647,1381,648.400000,1381,648.400000L1364.400000,646.600000C1364.400000,646.600000,1357.200000,669.500000,1356.800000,671.600000C1356.400000,673.700000,1364.700000,687,1365.100000,688.200000C1365.500000,689.400000,1374.800000,686.700000,1374.800000,684.800000C1374.800000,682.900000,1367.800000,674.900000,1367.800000,674.900000C1367.800000,674.900000,1368.800000,658.700000,1369.400000,658C1370,657.200000,1394,670.600000,1405.800000,663.700000C1417.700000,656.900000,1415.700000,649,1415.700000,649C1415.700000,649,1444.500000,643.600000,1456.900000,633.700000C1469.400000,623.800000,1466.500000,620.900000,1466.500000,620.900000L1483.100000,620.700000L1512.700000,601.100000L1515.400000,589.700000C1515.400000,589.700000,1509.200000,595.400000,1505.600000,597.400000C1502.100000,599.400000,1476.100000,607.500000,1474.400000,606C1472.700000,604.500000,1474.900000,594.500000,1474.900000,594.500000C1474.900000,594.500000,1482.200000,592.800000,1483.700000,589.700000C1485.200000,586.600000,1491.300000,580,1483.200000,577.600000C1475,575.200000,1469.600000,569,1460.300000,574Z" transform="matrix(1 0 0 1 -0.46673431999989 7.76257324500000)" fill="rgb(255,255,255)" stroke="none" stroke-width="1"/><path id="ezeu7ve5b8cc12" d="M1465.300000,617.400000C1464.100000,619.700000,1462.600000,621.900000,1460.900000,623.900000C1454.600000,631.200000,1445.200000,635.700000,1436.100000,638.500000C1431.400000,640,1426.600000,641.500000,1421.800000,642.100000C1419.200000,642.400000,1416.400000,642.800000,1413.800000,642.400000C1413.200000,642.300000,1412.700000,642.200000,1412.100000,642.100000C1411.200000,646.900000,1409.300000,652.300000,1405.100000,655.100000C1399.400000,658.900000,1393.200000,660.200000,1386.700000,657.500000C1384.800000,656.700000,1383,655.700000,1381.200000,654.900000C1380.500000,654.600000,1378.500000,654.200000,1379.200000,654.200000C1378.900000,654.200000,1378.700000,654.100000,1378.400000,654.100000C1379.700000,654.300000,1373.500000,655.400000,1375.700000,654.500000C1375.100000,654.800000,1374.800000,654.900000,1374.600000,654.900000C1374.500000,655.100000,1374.300000,655.300000,1374,655.600000C1373.800000,655.900000,1372.600000,658.100000,1372.900000,657.500000C1372.700000,658,1372.500000,658.400000,1372.300000,658.900000C1379.200000,661.700000,1396.300000,669.100000,1405.800000,663.700000C1417.700000,656.900000,1415.700000,649,1415.700000,649C1415.700000,649,1444.500000,643.600000,1456.900000,633.700000C1464.800000,627.400000,1466.500000,624,1466.800000,622.300000C1466,620.800000,1465.500000,619.100000,1465.300000,617.400000Z" fill="rgb(255,255,255)" stroke="none" stroke-width="1"/><path id="ezeu7ve5b8cc13" d="M1375.900000,625C1375,619,1379.100000,613.500000,1385,612.500000C1391,611.600000,1396.500000,615.700000,1397.500000,621.600000C1398.400000,627.600000,1394.300000,633.100000,1388.400000,634.100000C1382.400000,635.100000,1376.800000,631,1375.900000,625Z" fill="rgb(255,255,255)" stroke="none" stroke-width="1"/></g><g id="ezeu7ve5b8cc14"><g id="ezeu7ve5b8cc15"><g id="ezeu7ve5b8cc16"><polygon id="ezeu7ve5b8cc17" points="462.900000,795.100000 482.700000,848.200000 514.100000,850.900000 530.200000,848.500000 496.500000,837.800000 480.900000,788.700000" fill="rgb(252,210,177)" stroke="none" stroke-width="1"/><path id="ezeu7ve5b8cc18" d="M343.100000,682.200000L417.500000,684.700000L476.400000,835.300000L495.900000,830.700000L443.700000,650.800000C443.700000,650.800000,440,640.900000,417.500000,639.500000C395.700000,638.100000,307.800000,630.100000,297.600000,632.400000C273.500000,638,348.400000,661.400000,343.100000,682.200000Z" fill="rgb(14,83,140)" stroke="none" stroke-width="1"/><path id="ezeu7ve5b8cc19" d="M321.400000,447.700000C314.500000,460.600000,292.500000,455.500000,292.500000,455.500000C280.200000,448.200000,275.800000,431.900000,282.800000,419L287.500000,410.200000C294.400000,397.300000,310,392.700000,322.300000,400L327.900000,403.300000C340.200000,410.600000,346.100000,430.900000,331.600000,444.400000L321.400000,447.700000Z" fill="rgb(14,83,140)" stroke="none" stroke-width="1"/><path id="ezeu7ve5b8cc20" d="M336.400000,420C335.200000,422.100000,333.900000,424.200000,332.300000,426.300000C322,439.900000,307.200000,446.200000,297,442C293.100000,448.600000,288.500000,454,284.100000,458.200000C279.200000,463.100000,269.200000,465.400000,269.200000,465.400000C262,474.900000,264.100000,503.800000,287.800000,508.200000C302,510.900000,300,494.800000,295.500000,484.600000C293.400000,479.800000,293.500000,477.100000,294.100000,474.600000C296.400000,465.600000,300.400000,461.600000,305.700000,458.800000C308.700000,457.600000,311.500000,457.500000,313.900000,457.700000C319.300000,458.300000,324.500000,455.800000,327.200000,451.100000L335.500000,436.700000C338.400000,431.400000,338.500000,425.200000,336.400000,420Z" fill="rgb(255,227,202)" stroke="none" stroke-width="1"/><polygon id="ezeu7ve5b8cc21" points="389,801.800000 388.100000,838.100000 394.700000,847.200000 412.700000,859.700000 410,842 403.400000,837.300000 403.700000,799.200000" fill="rgb(252,210,177)" stroke="none" stroke-width="1"/><path id="ezeu7ve5b8cc22" d="M252.900000,601.900000L260.600000,624.700000L275.900000,627.600000L399.700000,643.600000C399.700000,643.600000,411,640.700000,417.100000,659.600000C425.700000,686.500000,406.600000,833.400000,406.600000,833.400000L388.200000,832L383.700000,691C383.700000,691,263.100000,705.500000,229.300000,692.300000C216.300000,687.200000,207.600000,662.100000,210.900000,637.600000C213.500000,618.300000,226.800000,601.300000,226.800000,601.300000L252.900000,601.900000Z" fill="rgb(14,83,140)" stroke="none" stroke-width="1"/><path id="ezeu7ve5b8cc23" d="M310.900000,597.600000C312,564.700000,309.600000,479.200000,294.400000,479.200000C292.900000,479.200000,291.500000,479.600000,290.300000,480.400000C285.600000,479.400000,278.100000,474,271.500000,464.800000C271.500000,464.800000,271.400000,464.800000,271.400000,464.800000L271.400000,464.800000C271.400000,464.800000,246.700000,471.100000,237.400000,475C231,477.700000,230.100000,565,229.300000,569.600000C226.500000,586,218.900000,604.500000,214,617.300000C210.100000,627.500000,210,646.200000,210,646.200000C210,646.200000,228.400000,631.900000,249.700000,628.100000C259.400000,625.900000,292.400000,629,294.700000,630.200000C296.800000,631.300000,294.200000,619.500000,293.900000,614.100000C296.200000,617.600000,301.500000,619.200000,306.400000,620.600000C320.300000,624.500000,381.300000,636.100000,381.300000,636.100000L391.800000,632.300000L310.900000,597.600000Z" fill="rgb(42,148,244)" stroke="none" stroke-width="1"/><g id="ezeu7ve5b8cc24"><path id="ezeu7ve5b8cc25" d="M306.900000,606.500000C323.100000,609.800000,326.300000,620.700000,332.200000,624.400000C338.200000,628.100000,346.100000,631.200000,346.100000,631.100000C348.600000,629.400000,340.500000,624.500000,338.300000,621.800000C336.100000,619.100000,337.100000,618.300000,342.300000,621.100000C347.300000,623.800000,349.500000,629.400000,353.100000,633.300000C356.200000,636.700000,357.400000,634.200000,357.400000,634.200000C357.400000,634.200000,357.600000,625,353.100000,619.500000C347.700000,612.800000,337.300000,609.500000,335.500000,608.400000C332.300000,606.400000,321.600000,603.900000,313.700000,603.300000C304.800000,602.600000,295.300000,604.200000,306.900000,606.500000Z" fill="rgb(252,210,177)" stroke="none" stroke-width="1"/></g><path id="ezeu7ve5b8cc26" d="M240.400000,581.800000L254,504.100000C254,504.100000,258.600000,486.100000,254.100000,480.200000C248.700000,473.200000,237.700000,474.500000,237.700000,474.500000C237.700000,474.500000,224.500000,481.500000,220.100000,544.300000C217,587.300000,214.900000,600.100000,232.400000,603.100000C248.800000,605.900000,317.900000,614.200000,317.900000,614.200000L321.800000,603.100000L240.400000,581.800000Z" fill="rgb(42,148,244)" stroke="none" stroke-width="1"/></g><g id="ezeu7ve5b8cc27"><polygon id="ezeu7ve5b8cc28" points="338.100000,632.600000 446.500000,639.300000 446.600000,637 338.200000,630.300000" fill="rgb(204,233,255)" stroke="none" stroke-width="1"/><path id="ezeu7ve5b8cc29" d="M386,633.100000C385.900000,634.900000,387.100000,636.400000,388.600000,636.500000L444.200000,640C445.700000,640.100000,447.800000,639.100000,449.900000,634.600000L480.300000,583.600000C480.400000,581.300000,478.800000,579.800000,477.300000,580.100000L420.200000,578.400000C418.700000,578.700000,417.400000,579.800000,416.400000,582.200000L386,633.100000Z" fill="rgb(204,233,255)" stroke="none" stroke-width="1"/><path id="ezeu7ve5b8cc30" d="M392.600000,636L392,636L337.700000,632.600000C339.600000,633.800000,342.800000,634.700000,346.500000,634.900000L391.900000,637.700000L392.500000,637.700000L437.900000,640.500000C441.600000,640.700000,444.900000,640.200000,446.900000,639.300000L392.600000,636Z" fill="rgb(177,223,252)" stroke="none" stroke-width="1"/></g><path id="ezeu7ve5b8cc31" d="M316.200000,405.700000C316.600000,405.800000,335.700000,386.300000,313,380.300000C293.800000,375.200000,286.500000,401.400000,316.200000,405.700000Z" fill="rgb(14,83,140)" stroke="none" stroke-width="1"/></g><path id="ezeu7ve5b8cc32" d="M388.100000,838.100000C388.100000,838.100000,390.300000,843.700000,410,842C410,842,417.600000,849.500000,427.700000,848.700000C437.800000,847.900000,438.500000,857.200000,438.500000,857.200000L438.600000,863L383.900000,859.800000L383.900000,842.400000C383.900000,840,385.800000,838.100000,388.100000,838.100000L388.100000,838.100000Z" fill="rgb(28,68,84)" stroke="none" stroke-width="1"/><path id="ezeu7ve5b8cc33" d="M479.700000,840.300000C479.700000,840.300000,483.100000,845.300000,502,839.400000C502,839.400000,511,845.100000,520.700000,842.200000C530.400000,839.200000,533.100000,848.200000,533.100000,848.200000L534.400000,853.900000L480.300000,862.300000L476.600000,845.300000C476,843,477.500000,840.800000,479.700000,840.300000L479.700000,840.300000Z" fill="rgb(28,68,84)" stroke="none" stroke-width="1"/></g><path id="ezeu7ve5b8cc34" d="M240.400000,581.800000L254,504.100000C254,504.100000,258.600000,486.100000,254.100000,480.200000C248.700000,473.200000,237.700000,474.500000,237.700000,474.500000C237.700000,474.500000,224.500000,481.500000,220.100000,544.300000C217,587.300000,214.900000,600.100000,232.400000,603.100000C248.800000,605.900000,317.900000,614.200000,317.900000,614.200000L321.800000,603.100000L240.400000,581.800000Z" opacity="0.1" fill="rgb(247,247,247)" stroke="none" stroke-width="1"/><script><![CDATA[!function(t,n){"object"==typeof exports&&"undefined"!=typeof module?module.exports=n():"function"==typeof define&&define.amd?define(n):(t="undefined"!=typeof globalThis?globalThis:t||self).__SVGATOR_PLAYER__=n()}(this,(function(){"use strict";function t(n){return(t="function"==typeof Symbol&&"symbol"==typeof Symbol.iterator?function(t){return typeof t}:function(t){return t&&"function"==typeof Symbol&&t.constructor===Symbol&&t!==Symbol.prototype?"symbol":typeof t})(n)}function n(t,n){if(!(t instanceof n))throw new TypeError("Cannot call a class as a function")}function r(t,n){for(var r=0;r<n.length;r++){var e=n[r];e.enumerable=e.enumerable||!1,e.configurable=!0,"value"in e&&(e.writable=!0),Object.defineProperty(t,e.key,e)}}function e(t,n,e){return n&&r(t.prototype,n),e&&r(t,e),t}function i(t){return(i=Object.setPrototypeOf?Object.getPrototypeOf:function(t){return t.__proto__||Object.getPrototypeOf(t)})(t)}function o(t,n){return(o=Object.setPrototypeOf||function(t,n){return t.__proto__=n,t})(t,n)}function u(t,n){return!n||"object"!=typeof n&&"function"!=typeof n?function(t){if(void 0===t)throw new ReferenceError("this hasn't been initialised - super() hasn't been called");return t}(t):n}function a(t){var n=function(){if("undefined"==typeof Reflect||!Reflect.construct)return!1;if(Reflect.construct.sham)return!1;if("function"==typeof Proxy)return!0;try{return Boolean.prototype.valueOf.call(Reflect.construct(Boolean,[],(function(){}))),!0}catch(t){return!1}}();return function(){var r,e=i(t);if(n){var o=i(this).constructor;r=Reflect.construct(e,arguments,o)}else r=e.apply(this,arguments);return u(this,r)}}function l(t,n,r){return(l="undefined"!=typeof Reflect&&Reflect.get?Reflect.get:function(t,n,r){var e=function(t,n){for(;!Object.prototype.hasOwnProperty.call(t,n)&&null!==(t=i(t)););return t}(t,n);if(e){var o=Object.getOwnPropertyDescriptor(e,n);return o.get?o.get.call(r):o.value}})(t,n,r||t)}var f=Math.abs;function s(t){return t}function c(t,n,r){var e=1-r;return 3*r*e*(t*e+n*r)+r*r*r}function h(){var t=arguments.length>0&&void 0!==arguments[0]?arguments[0]:0,n=arguments.length>1&&void 0!==arguments[1]?arguments[1]:0,r=arguments.length>2&&void 0!==arguments[2]?arguments[2]:1,e=arguments.length>3&&void 0!==arguments[3]?arguments[3]:1;return t<0||t>1||r<0||r>1?null:f(t-n)<=1e-5&&f(r-e)<=1e-5?s:function(i){if(i<=0)return t>0?i*n/t:0===n&&r>0?i*e/r:0;if(i>=1)return r<1?1+(i-1)*(e-1)/(r-1):1===r&&t<1?1+(i-1)*(n-1)/(t-1):1;for(var o,u=0,a=1;u<a;){var l=c(t,r,o=(u+a)/2);if(f(i-l)<1e-5)break;l<i?u=o:a=o}return c(n,e,o)}}function v(){return 1}function y(t){return 1===t?1:0}function d(){var t=arguments.length>0&&void 0!==arguments[0]?arguments[0]:1,n=arguments.length>1&&void 0!==arguments[1]?arguments[1]:0;if(1===t){if(0===n)return y;if(1===n)return v}var r=1/t;return function(t){return t>=1?1:(t+=n*r)-t%r}}function g(t){var n=arguments.length>1&&void 0!==arguments[1]?arguments[1]:2;if(Number.isInteger(t))return t;var r=Math.pow(10,n);return Math.round(t*r)/r}var p=Math.PI/180;function m(t,n,r){return t>=.5?r:n}function b(t,n,r){return 0===t||n===r?n:t*(r-n)+n}function w(t,n,r){var e=b(t,n,r);return e<=0?0:e}function x(t,n,r){return 0===t?n:1===t?r:{x:b(t,n.x,r.x),y:b(t,n.y,r.y)}}function k(t,n,r){var e=function(t,n,r){return Math.round(b(t,n,r))}(t,n,r);return e<=0?0:e>=255?255:e}function A(t,n,r){return 0===t?n:1===t?r:{r:k(t,n.r,r.r),g:k(t,n.g,r.g),b:k(t,n.b,r.b),a:b(t,null==n.a?1:n.a,null==r.a?1:r.a)}}function _(t,n,r){if(0===t)return n;if(1===t)return r;var e=n.length;if(e!==r.length)return m(t,n,r);for(var i=[],o=0;o<e;o++)i.push(A(t,n[o],r[o]));return i}function S(t,n){for(var r=[],e=0;e<t;e++)r.push(n);return r}function O(t,n){if(--n<=0)return t;var r=(t=Object.assign([],t)).length;do{for(var e=0;e<r;e++)t.push(t[e])}while(--n>0);return t}var M,j=function(){function t(r){n(this,t),this.list=r,this.length=r.length}return e(t,[{key:"setAttribute",value:function(t,n){for(var r=this.list,e=0;e<this.length;e++)r[e].setAttribute(t,n)}},{key:"removeAttribute",value:function(t){for(var n=this.list,r=0;r<this.length;r++)n[r].removeAttribute(t)}},{key:"style",value:function(t,n){for(var r=this.list,e=0;e<this.length;e++)r[e].style[t]=n}}]),t}(),F=/-./g,P=function(t,n){return n.toUpperCase()};function B(t){return"function"==typeof t?t:m}function I(t){return t?"function"==typeof t?t:Array.isArray(t)?function(t){var n=arguments.length>1&&void 0!==arguments[1]?arguments[1]:s;if(!Array.isArray(t))return n;switch(t.length){case 1:return d(t[0])||n;case 2:return d(t[0],t[1])||n;case 4:return h(t[0],t[1],t[2],t[3])||n}return n}(t,null):function(t,n){var r=arguments.length>2&&void 0!==arguments[2]?arguments[2]:s;switch(t){case"linear":return s;case"steps":return d(n.steps||1,n.jump||0)||r;case"bezier":case"cubic-bezier":return h(n.x1||0,n.y1||0,n.x2||0,n.y2||0)||r}return r}(t.type,t.value,null):null}function R(t,n,r){var e=arguments.length>3&&void 0!==arguments[3]&&arguments[3],i=n.length-1;if(t<=n[0].t)return e?[0,0,n[0].v]:n[0].v;if(t>=n[i].t)return e?[i,1,n[i].v]:n[i].v;var o,u=n[0],a=null;for(o=1;o<=i;o++){if(!(t>n[o].t)){a=n[o];break}u=n[o]}return null==a?e?[i,1,n[i].v]:n[i].v:u.t===a.t?e?[o,1,a.v]:a.v:(t=(t-u.t)/(a.t-u.t),u.e&&(t=u.e(t)),e?[o,t,r(t,u.v,a.v)]:r(t,u.v,a.v))}function q(t,n){var r=arguments.length>2&&void 0!==arguments[2]?arguments[2]:null;return t&&t.length?"function"!=typeof n?null:("function"!=typeof r&&(r=null),function(e){var i=R(e,t,n);return null!=i&&r&&(i=r(i)),i}):null}function E(t,n){return t.t-n.t}function T(n,r,e,i,o){var u,a="@"===e[0],l="#"===e[0],f=M[e],s=m;switch(a?(u=e.substr(1),e=u.replace(F,P)):l&&(e=e.substr(1)),t(f)){case"function":if(s=f(i,o,R,I,e,a,r,n),l)return s;break;case"string":s=q(i,B(f));break;case"object":if((s=q(i,B(f.i),f.f))&&"function"==typeof f.u)return f.u(r,s,e,a,n)}return s?function(t,n,r){var e=arguments.length>3&&void 0!==arguments[3]&&arguments[3];if(e)return t instanceof j?function(e){return t.style(n,r(e))}:function(e){return t.style[n]=r(e)};if(Array.isArray(n)){var i=n.length;return function(e){var o=r(e);if(null==o)for(var u=0;u<i;u++)t[u].removeAttribute(n);else for(var a=0;a<i;a++)t[a].setAttribute(n,o)}}return function(e){var i=r(e);null==i?t.removeAttribute(n):t.setAttribute(n,i)}}(r,e,s,a):null}function N(n,r,e,i){if(!i||"object"!==t(i))return null;var o=null,u=null;return Array.isArray(i)?u=function(t){if(!t||!t.length)return null;for(var n=0;n<t.length;n++)t[n].e&&(t[n].e=I(t[n].e));return t.sort(E)}(i):(u=i.keys,o=i.data||null),u?T(n,r,e,u,o):null}function C(t,n,r){if(!r)return null;var e=[];for(var i in r)if(r.hasOwnProperty(i)){var o=N(t,n,i,r[i]);o&&e.push(o)}return e.length?e:null}function z(t,n){if(!n.duration||n.duration<0)return null;var r=function(t,n){if(!n)return null;var r=[];if(Array.isArray(n))for(var e=n.length,i=0;i<e;i++){var o=n[i];if(2===o.length){var u=null;if("string"==typeof o[0])u=t.getElementById(o[0]);else if(Array.isArray(o[0])){u=[];for(var a=0;a<o[0].length;a++)if("string"==typeof o[0][a]){var l=t.getElementById(o[0][a]);l&&u.push(l)}u=u.length?1===u.length?u[0]:new j(u):null}if(u){var f=C(t,u,o[1]);f&&(r=r.concat(f))}}}else for(var s in n)if(n.hasOwnProperty(s)){var c=t.getElementById(s);if(c){var h=C(t,c,n[s]);h&&(r=r.concat(h))}}return r.length?r:null}(t,n.elements);return r?function(t,n){var r=arguments.length>2&&void 0!==arguments[2]?arguments[2]:1/0,e=arguments.length>3&&void 0!==arguments[3]?arguments[3]:1,i=arguments.length>4&&void 0!==arguments[4]&&arguments[4],o=arguments.length>5&&void 0!==arguments[5]?arguments[5]:1,u=t.length,a=e>0?n:0;i&&r%2==0&&(a=n-a);var l=null;return function(f,s){var c=f%n,h=1+(f-c)/n;s*=e,i&&h%2==0&&(s=-s);var v=!1;if(h>r)c=a,v=!0,-1===o&&(c=e>0?0:n);else if(s<0&&(c=n-c),c===l)return!1;l=c;for(var y=0;y<u;y++)t[y](c);return v}}(r,n.duration,n.iterations||1/0,n.direction||1,!!n.alternate,n.fill||1):null}var L=function(){function t(r,e){var i=arguments.length>2&&void 0!==arguments[2]?arguments[2]:{};n(this,t),this._id=0,this._running=!1,this._rollingBack=!1,this._animations=r,this.duration=e.duration,this.alternate=e.alternate,this.fill=e.fill,this.iterations=e.iterations,this.direction=i.direction||1,this.speed=i.speed||1,this.fps=i.fps||100,this.offset=i.offset||0,this.rollbackStartOffset=0}return e(t,[{key:"_rollback",value:function(){var t=this,n=1/0,r=null;this.rollbackStartOffset=this.offset,this._rollingBack||(this._rollingBack=!0,this._running=!0);this._id=window.requestAnimationFrame((function e(i){if(t._rollingBack){null==r&&(r=i);var o=i-r,u=t.rollbackStartOffset-o,a=Math.round(u*t.speed);if(a>t.duration&&n!=1/0){var l=!!t.alternate&&a/t.duration%2>1,f=a%t.duration;a=(f+=l?t.duration:0)||t.duration}var s=t.fps?1e3/t.fps:0,c=Math.max(0,a);if(c<n-s){t.offset=c,n=c;for(var h=t._animations,v=h.length,y=0;y<v;y++)h[y](c,t.direction)}var d=!1;if(t.iterations>0&&-1===t.fill){var g=t.iterations*t.duration,p=g==a;a=p?0:a,t.offset=p?0:t.offset,d=a>g}a>0&&t.offset>=a&&!d?t._id=window.requestAnimationFrame(e):t.stop()}}))}},{key:"_start",value:function(){var t=this,n=arguments.length>0&&void 0!==arguments[0]?arguments[0]:0,r=-1/0,e=null,i={},o=function o(u){t._running=!0,null==e&&(e=u);var a=Math.round((u-e+n)*t.speed),l=t.fps?1e3/t.fps:0;if(a>r+l&&!t._rollingBack){t.offset=a,r=a;for(var f=t._animations,s=f.length,c=0,h=0;h<s;h++)i[h]?c++:(i[h]=f[h](a,t.direction),i[h]&&c++);if(c===s)return void t._stop()}t._id=window.requestAnimationFrame(o)};this._id=window.requestAnimationFrame(o)}},{key:"_stop",value:function(){this._id&&window.cancelAnimationFrame(this._id),this._running=!1,this._rollingBack=!1}},{key:"play",value:function(){!this._rollingBack&&this._running||(this._rollingBack=!1,this.rollbackStartOffset>this.duration&&(this.offset=this.rollbackStartOffset-(this.rollbackStartOffset-this.offset)%this.duration,this.rollbackStartOffset=0),this._start(this.offset))}},{key:"stop",value:function(){this._stop(),this.offset=0,this.rollbackStartOffset=0;var t=this.direction,n=this._animations;window.requestAnimationFrame((function(){for(var r=0;r<n.length;r++)n[r](0,t)}))}},{key:"reachedToEnd",value:function(){return this.iterations>0&&this.offset>=this.iterations*this.duration}},{key:"restart",value:function(){this._stop(),this.offset=0,this._start()}},{key:"pause",value:function(){this._stop()}},{key:"reverse",value:function(){this.direction=-this.direction}}],[{key:"build",value:function(n,r){return(n=function(t,n){if(M=n,!t||!t.root||!Array.isArray(t.animations))return null;for(var r=document.getElementsByTagName("svg"),e=!1,i=0;i<r.length;i++)if(r[i].id===t.root&&!r[i].svgatorAnimation){(e=r[i]).svgatorAnimation=!0;break}if(!e)return null;var o=t.animations.map((function(t){return z(e,t)})).filter((function(t){return!!t}));return o.length?{element:e,animations:o,animationSettings:t.animationSettings,options:t.options||void 0}:null}(n,r))?{el:n.element,options:n.options||{},player:new t(n.animations,n.animationSettings,n.options)}:null}}]),t}();!function(){for(var t=0,n=["ms","moz","webkit","o"],r=0;r<n.length&&!window.requestAnimationFrame;++r)window.requestAnimationFrame=window[n[r]+"RequestAnimationFrame"],window.cancelAnimationFrame=window[n[r]+"CancelAnimationFrame"]||window[n[r]+"CancelRequestAnimationFrame"];window.requestAnimationFrame||(window.requestAnimationFrame=function(n){var r=Date.now(),e=Math.max(0,16-(r-t)),i=window.setTimeout((function(){n(r+e)}),e);return t=r+e,i},window.cancelAnimationFrame=window.clearTimeout)}();var D=/\.0+$/g;function Q(t){return Number.isInteger(t)?t+"":t.toFixed(6).replace(D,"")}function U(t){var n=arguments.length>1&&void 0!==arguments[1]?arguments[1]:" ";return t&&t.length?t.map(Q).join(n):""}function V(t){return t?null==t.a||t.a>=1?"rgb("+t.r+","+t.g+","+t.b+")":"rgba("+t.r+","+t.g+","+t.b+","+t.a+")":"transparent"}var $={f:null,i:function(t,n,r){return 0===t?n:1===t?r:{x:w(t,n.x,r.x),y:w(t,n.y,r.y)}},u:function(t,n){return function(r){var e=n(r);t.setAttribute("rx",Q(e.x)),t.setAttribute("ry",Q(e.y))}}},G={f:null,i:function(t,n,r){return 0===t?n:1===t?r:{width:w(t,n.width,r.width),height:w(t,n.height,r.height)}},u:function(t,n){return function(r){var e=n(r);t.setAttribute("width",Q(e.width)),t.setAttribute("height",Q(e.height))}}},H=Math.sin,Y=Math.cos,Z=Math.acos,J=Math.asin,K=Math.tan,W=Math.atan2,X=Math.PI/180,tt=180/Math.PI,nt=Math.sqrt,rt=function(){function t(){var r=arguments.length>0&&void 0!==arguments[0]?arguments[0]:1,e=arguments.length>1&&void 0!==arguments[1]?arguments[1]:0,i=arguments.length>2&&void 0!==arguments[2]?arguments[2]:0,o=arguments.length>3&&void 0!==arguments[3]?arguments[3]:1,u=arguments.length>4&&void 0!==arguments[4]?arguments[4]:0,a=arguments.length>5&&void 0!==arguments[5]?arguments[5]:0;n(this,t),this.m=[r,e,i,o,u,a],this.i=null,this.w=null,this.s=null}return e(t,[{key:"determinant",get:function(){var t=this.m;return t[0]*t[3]-t[1]*t[2]}},{key:"isIdentity",get:function(){if(null===this.i){var t=this.m;this.i=1===t[0]&&0===t[1]&&0===t[2]&&1===t[3]&&0===t[4]&&0===t[5]}return this.i}},{key:"point",value:function(t,n){var r=this.m;return{x:r[0]*t+r[2]*n+r[4],y:r[1]*t+r[3]*n+r[5]}}},{key:"translateSelf",value:function(){var t=arguments.length>0&&void 0!==arguments[0]?arguments[0]:0,n=arguments.length>1&&void 0!==arguments[1]?arguments[1]:0;if(!t&&!n)return this;var r=this.m;return r[4]+=r[0]*t+r[2]*n,r[5]+=r[1]*t+r[3]*n,this.w=this.s=this.i=null,this}},{key:"rotateSelf",value:function(){var t=arguments.length>0&&void 0!==arguments[0]?arguments[0]:0;if(t%=360){var n=H(t*=X),r=Y(t),e=this.m,i=e[0],o=e[1];e[0]=i*r+e[2]*n,e[1]=o*r+e[3]*n,e[2]=e[2]*r-i*n,e[3]=e[3]*r-o*n,this.w=this.s=this.i=null}return this}},{key:"scaleSelf",value:function(){var t=arguments.length>0&&void 0!==arguments[0]?arguments[0]:1,n=arguments.length>1&&void 0!==arguments[1]?arguments[1]:1;if(1!==t||1!==n){var r=this.m;r[0]*=t,r[1]*=t,r[2]*=n,r[3]*=n,this.w=this.s=this.i=null}return this}},{key:"skewSelf",value:function(t,n){if(n%=360,(t%=360)||n){var r=this.m,e=r[0],i=r[1],o=r[2],u=r[3];t&&(t=K(t*X),r[2]+=e*t,r[3]+=i*t),n&&(n=K(n*X),r[0]+=o*n,r[1]+=u*n),this.w=this.s=this.i=null}return this}},{key:"resetSelf",value:function(){var t=arguments.length>0&&void 0!==arguments[0]?arguments[0]:1,n=arguments.length>1&&void 0!==arguments[1]?arguments[1]:0,r=arguments.length>2&&void 0!==arguments[2]?arguments[2]:0,e=arguments.length>3&&void 0!==arguments[3]?arguments[3]:1,i=arguments.length>4&&void 0!==arguments[4]?arguments[4]:0,o=arguments.length>5&&void 0!==arguments[5]?arguments[5]:0,u=this.m;return u[0]=t,u[1]=n,u[2]=r,u[3]=e,u[4]=i,u[5]=o,this.w=this.s=this.i=null,this}},{key:"recomposeSelf",value:function(){var t=arguments.length>0&&void 0!==arguments[0]?arguments[0]:null,n=arguments.length>1&&void 0!==arguments[1]?arguments[1]:null,r=arguments.length>2&&void 0!==arguments[2]?arguments[2]:null,e=arguments.length>3&&void 0!==arguments[3]?arguments[3]:null,i=arguments.length>4&&void 0!==arguments[4]?arguments[4]:null;return this.isIdentity||this.resetSelf(),t&&(t.x||t.y)&&this.translateSelf(t.x,t.y),n&&this.rotateSelf(n),r&&(r.x&&this.skewSelf(r.x,0),r.y&&this.skewSelf(0,r.y)),!e||1===e.x&&1===e.y||this.scaleSelf(e.x,e.y),i&&(i.x||i.y)&&this.translateSelf(i.x,i.y),this}},{key:"decompose",value:function(){var t=arguments.length>0&&void 0!==arguments[0]?arguments[0]:0,n=arguments.length>1&&void 0!==arguments[1]?arguments[1]:0,r=this.m,e=r[0]*r[0]+r[1]*r[1],i=[[r[0],r[1]],[r[2],r[3]]],o=nt(e);if(0===o)return{origin:{x:r[4],y:r[5]},translate:{x:t,y:n},scale:{x:0,y:0},skew:{x:0,y:0},rotate:0};i[0][0]/=o,i[0][1]/=o;var u=r[0]*r[3]-r[1]*r[2]<0;u&&(o=-o);var a=i[0][0]*i[1][0]+i[0][1]*i[1][1];i[1][0]-=i[0][0]*a,i[1][1]-=i[0][1]*a;var l=nt(i[1][0]*i[1][0]+i[1][1]*i[1][1]);if(0===l)return{origin:{x:r[4],y:r[5]},translate:{x:t,y:n},scale:{x:o,y:0},skew:{x:0,y:0},rotate:0};i[1][0]/=l,i[1][1]/=l,a/=l;var f=0;return i[1][1]<0?(f=Z(i[1][1])*tt,i[0][1]<0&&(f=360-f)):f=J(i[0][1])*tt,u&&(f=-f),a=W(a,nt(i[0][0]*i[0][0]+i[0][1]*i[0][1]))*tt,u&&(a=-a),{origin:{x:r[4],y:r[5]},translate:{x:t,y:n},scale:{x:o,y:l},skew:{x:a,y:0},rotate:f}}},{key:"toString",value:function(){return null===this.s&&(this.s="matrix("+this.m.map(it).join(" ")+")"),this.s}}]),t}(),et=/\.0+$/;function it(t){return Number.isInteger(t)?t:t.toFixed(14).replace(et,"")}function ot(t,n,r){return t+(n-t)*r}function ut(t,n,r){var e=arguments.length>3&&void 0!==arguments[3]&&arguments[3],i={x:ot(t.x,n.x,r),y:ot(t.y,n.y,r)};return e&&(i.a=at(t,n)),i}function at(t,n){return Math.atan2(n.y-t.y,n.x-t.x)}Object.freeze({M:2,L:2,Z:0,H:1,V:1,C:6,Q:4,T:2,S:4,A:7});var lt={},ft=null;function st(n){var r=function(){if(ft)return ft;if("object"!==("undefined"==typeof document?"undefined":t(document)))return{};var n=document.createElementNS("http://www.w3.org/2000/svg","svg");return n.style.position="absolute",n.style.opacity="0.01",n.style.zIndex="-9999",n.style.left="-9999px",n.style.width="1px",n.style.height="1px",ft={svg:n}}().svg;if(!r)return function(t){return null};var e=document.createElementNS(r.namespaceURI,"path");e.setAttributeNS(null,"d",n),e.setAttributeNS(null,"fill","none"),e.setAttributeNS(null,"stroke","none"),r.appendChild(e);var i=e.getTotalLength();return function(t){var n=e.getPointAtLength(i*t);return{x:n.x,y:n.y}}}function ct(t){return lt[t]?lt[t]:lt[t]=st(t)}function ht(t,n,r,e){if(!t||!e)return!1;var i=["M",t.x,t.y];if(n&&r&&(i.push("C"),i.push(n.x),i.push(n.y),i.push(r.x),i.push(r.y)),n?!r:r){var o=n||r;i.push("Q"),i.push(o.x),i.push(o.y)}return n||r||i.push("L"),i.push(e.x),i.push(e.y),i.join(" ")}function vt(t,n,r,e){var i=arguments.length>4&&void 0!==arguments[4]?arguments[4]:1,o=ht(t,n,r,e),u=ct(o);try{return u(i)}catch(t){return null}}function yt(t,n,r,e){var i=1-e;return i*i*t+2*i*e*n+e*e*r}function dt(t,n,r,e){return 2*(1-e)*(n-t)+2*e*(r-n)}function gt(t,n,r,e){var i=arguments.length>4&&void 0!==arguments[4]&&arguments[4],o=vt(t,n,null,r,e);return o||(o={x:yt(t.x,n.x,r.x,e),y:yt(t.y,n.y,r.y,e)}),i&&(o.a=pt(t,n,r,e)),o}function pt(t,n,r,e){return Math.atan2(dt(t.y,n.y,r.y,e),dt(t.x,n.x,r.x,e))}function mt(t,n,r,e,i){var o=i*i;return i*o*(e-t+3*(n-r))+3*o*(t+r-2*n)+3*i*(n-t)+t}function bt(t,n,r,e,i){var o=1-i;return 3*(o*o*(n-t)+2*o*i*(r-n)+i*i*(e-r))}function wt(t,n,r,e,i){var o=arguments.length>5&&void 0!==arguments[5]&&arguments[5],u=vt(t,n,r,e,i);return u||(u={x:mt(t.x,n.x,r.x,e.x,i),y:mt(t.y,n.y,r.y,e.y,i)}),o&&(u.a=xt(t,n,r,e,i)),u}function xt(t,n,r,e,i){return Math.atan2(bt(t.y,n.y,r.y,e.y,i),bt(t.x,n.x,r.x,e.x,i))}function kt(t,n,r){var e=arguments.length>3&&void 0!==arguments[3]&&arguments[3];if(_t(n)){if(St(r))return gt(n,r.start,r,t,e)}else if(_t(r)){if(n.end)return gt(n,n.end,r,t,e)}else{if(n.end)return r.start?wt(n,n.end,r.start,r,t,e):gt(n,n.end,r,t,e);if(r.start)return gt(n,r.start,r,t,e)}return ut(n,r,t,e)}function At(t,n,r){var e=kt(t,n,r,!0);return e.a=function(t){var n=arguments.length>1&&void 0!==arguments[1]&&arguments[1];return n?t+Math.PI:t}(e.a)/p,e}function _t(t){return!t.type||"corner"===t.type}function St(t){return null!=t.start&&!_t(t)}var Ot=new rt;var Mt={f:Q,i:b},jt={f:Q,i:function(t,n,r){var e=b(t,n,r);return e<=0?0:e>=1?1:e}};function Ft(t,n,r,e,i,o,u,a){return n=function(t,n,r){for(var e,i,o,u=t.length-1,a={},l=0;l<=u;l++)(e=t[l]).e&&(e.e=n(e.e)),e.v&&"g"===(i=e.v).t&&i.r&&(o=r.getElementById(i.r))&&(a[i.r]=o.querySelectorAll("stop"));return a}(t,e,a),function(e){var i,o=r(e,t,Pt);return o?"c"===o.t?V(o.v):"g"===o.t?(n[o.r]&&function(t,n){for(var r=0,e=t.length;r<e;r++)t[r].setAttribute("stop-color",V(n[r]))}(n[o.r],o.v),(i=o.r)?"url(#"+i+")":"none"):"none":"none"}}function Pt(t,n,r){if(0===t)return n;if(1===t)return r;if(n&&r){var e=n.t;if(e===r.t)switch(n.t){case"c":return{t:e,v:A(t,n.v,r.v)};case"g":if(n.r===r.r)return{t:e,v:_(t,n.v,r.v),r:n.r}}}return m(t,n,r)}var Bt={fill:Ft,"fill-opacity":jt,stroke:Ft,"stroke-opacity":jt,"stroke-width":Mt,"stroke-dashoffset":{f:Q,i:b},"stroke-dasharray":{f:function(t){var n=arguments.length>1&&void 0!==arguments[1]?arguments[1]:" ";return t&&t.length>0&&(t=t.map((function(t){return Math.floor(1e4*t)/1e4}))),U(t,n)},i:function(t,n,r){var e,i,o,u=n.length,a=r.length;if(u!==a)if(0===u)n=S(u=a,0);else if(0===a)a=u,r=S(u,0);else{var l=(o=(e=u)*(i=a)/function(t,n){for(var r;n;)r=n,n=t%n,t=r;return t||1}(e,i))<0?-o:o;n=O(n,Math.floor(l/u)),r=O(r,Math.floor(l/a)),u=a=l}for(var f=[],s=0;s<u;s++)f.push(g(w(t,n[s],r[s]),6));return f}},opacity:jt,transform:function(n,r,e,i){if(!(n=function(n,r){if(!n||"object"!==t(n))return null;var e=!1;for(var i in n)n.hasOwnProperty(i)&&(n[i]&&n[i].length?(n[i].forEach((function(t){t.e&&(t.e=r(t.e))})),e=!0):delete n[i]);return e?n:null}(n,i)))return null;var o=function(t,i,o){var u=arguments.length>3&&void 0!==arguments[3]?arguments[3]:null;return n[t]?e(i,n[t],o):r&&r[t]?r[t]:u};return r&&r.a&&n.o?function(t){var r=e(t,n.o,At);return Ot.recomposeSelf(r,o("r",t,b,0)+r.a,o("k",t,x),o("s",t,x),o("t",t,x)).toString()}:function(t){return Ot.recomposeSelf(o("o",t,kt,null),o("r",t,b,0),o("k",t,x),o("s",t,x),o("t",t,x)).toString()}},r:Mt,"#size":G,"#radius":$,_:function(t,n){if(Array.isArray(t))for(var r=0;r<t.length;r++)this[t[r]]=n;else this[t]=n}};return function(t){!function(t,n){if("function"!=typeof n&&null!==n)throw new TypeError("Super expression must either be null or a function");t.prototype=Object.create(n&&n.prototype,{constructor:{value:t,writable:!0,configurable:!0}}),n&&o(t,n)}(u,t);var r=a(u);function u(){return n(this,u),r.apply(this,arguments)}return e(u,null,[{key:"build",value:function(t){var n=l(i(u),"build",this).call(this,t,Bt);n.el,n.options;var r=n.player;return function(t){t.play()}(r),r}}]),u}(L)}));
__SVGATOR_PLAYER__.build({"root":"ezeu7ve5b8cc1","animations":[{"duration":3000,"direction":1,"iterations":1,"fill":1,"alternate":false,"elements":{"ezeu7ve5b8cc7":{"transform":{"data":{"t":{"x":-1433.6498413085938,"y":-611.0484924316406}},"keys":{"o":[{"t":0,"v":{"x":348.3410089085931,"y":574.7113097816392,"type":"corner"}},{"t":3000,"v":{"x":1633.7581529035936,"y":574.7113097866369,"type":"corner"}}],"r":[{"t":0,"v":15},{"t":3000,"v":375}]}}}}}],"options":{"start":"load","hover":"freeze","click":"freeze","scroll":25,"font":"embed","exportedIds":"unique","title":"fast-loading"},"animationSettings":{"duration":3000,"direction":1,"iterations":1,"fill":1,"alternate":false}})]]></script></svg>